{"title":"Armageddon.1998.SWESUB.DVDRip.XviD.AC3.(5.1).-Zen_Bud","uid":5568863,"size":1473940888,"categoryP":"video","categoryS":"movies","magnet":"?xt=urn:btih:a94b080b69292fba76f2ba850433b6a217152698&amp;dn=Armageddon.1998.SWESUB.DVDRip.XviD.AC3.%285.1%29.-Zen_Bud&amp;tr=udp%3A%2F%2Ftracker.openbittorrent.com%3A80&amp;tr=udp%3A%2F%2Fopen.demonii.com%3A1337&amp;tr=udp%3A%2F%2Ftracker.coppersurfer.tk%3A6969&amp;tr=udp%3A%2F%2Fexodus.desync.com%3A6969","seeders":1,"leechers":0,"uploader":"Zen_Bud","files":-1,"time":1274083929,"description":"General\nComplete name                    : Armageddon.avi\nFormat                           : AVI\nFile size                        : 1.37 GiB\nDuration                         : 2h 30mn\nOverall bit rate                 : 1 303 Kbps\n\nVideo\nID                               : 0\nFormat                           : MPEG-4 Visual\nCodec ID/Hint                    : XviD\nDuration                         : 2h 30mn\nBit rate                         : 844 Kbps\nWidth                            : 720 pixels\nHeight                           : 428 pixels\nDisplay aspect ratio             : 2.35:1\nResolution                       : 8 bits\nColorimetry                      : 4:2:0\nScan type                        : Progressive\nBits/(Pixel*Frame)               : 0.110\nStream size                      : 911 MiB (65%)\nWriting library                  : XviD 1.1.2 (UTC 2006-11-01)\n\nAudio\nID                               : 1\nFormat                           : AC-3\nDuration                         : 2h 30mn\nBit rate                         : 448 Kbps\nChannel(s)                       : 6 channels\nChannel positions                : Front: L C R, Side: L R, LFE\nSampling rate                    : 48.0 KHz\nStream size                      : 483 MiB (34%)\n\n\n","torrent":{"xt":"urn:btih:a94b080b69292fba76f2ba850433b6a217152698","amp;dn":"Armageddon.1998.SWESUB.DVDRip.XviD.AC3.%285.1%29.-Zen_Bud","amp;tr":["udp%3A%2F%2Ftracker.openbittorrent.com%3A80","udp%3A%2F%2Fopen.demonii.com%3A1337","udp%3A%2F%2Ftracker.coppersurfer.tk%3A6969","udp%3A%2F%2Fexodus.desync.com%3A6969"],"infoHash":"a94b080b69292fba76f2ba850433b6a217152698","infoHashBuffer":{"type":"Buffer","data":[169,75,8,11,105,41,47,186,118,242,186,133,4,51,182,162,23,21,38,152]},"announce":[],"urlList":[]}}